<?xml version="1.0" standalone="no"?>
<!DOCTYPE svg PUBLIC "-//W3C//DTD SVG 20010904//EN"
 "http://www.w3.org/TR/2001/REC-SVG-20010904/DTD/svg10.dtd">
<svg version="1.0" xmlns="http://www.w3.org/2000/svg"
 width="105.000000pt" height="105.000000pt" viewBox="0 0 105.000000 105.000000"
 preserveAspectRatio="xMidYMid meet">

<g transform="translate(0.000000,105.000000) scale(0.100000,-0.100000)"
fill="#000000" stroke="none">
<path d="M195 809 c-54 -27 -103 -162 -126 -349 -20 -169 6 -240 89 -240 56 0
88 39 127 158 14 43 20 52 34 46 35 -15 80 -15 109 0 42 22 154 21 187 0 24
-16 70 -16 106 0 12 5 22 -11 48 -78 35 -94 65 -126 115 -126 75 0 102 57 92
194 -13 193 -71 366 -131 395 -24 12 -36 12 -70 2 -22 -7 -57 -15 -77 -18
l-38 -5 0 -72 c0 -106 -1 -107 -145 -104 l-120 3 -5 85 -5 85 -34 3 c-19 2
-44 10 -55 18 -23 16 -71 17 -101 3z m640 -94 c0 -21 -31 -33 -46 -18 -5 5 -7
17 -3 27 9 24 49 17 49 -9z m-578 -10 c2 -6 -3 -20 -12 -30 -13 -17 -16 -18
-25 -5 -18 27 -12 52 12 48 12 -2 23 -8 25 -13z m-63 -41 c21 -8 21 -30 0 -38
-27 -10 -34 -7 -34 19 0 26 7 29 34 19z m113 -10 c8 -22 -11 -37 -36 -29 -23
7 -28 30 -8 38 23 10 38 7 44 -9z m463 -4 c0 -24 -26 -38 -42 -22 -16 16 -2
42 22 42 13 0 20 -7 20 -20z m-513 -65 c-2 -5 -13 -11 -25 -13 -25 -4 -31 25
-10 46 10 10 15 9 26 -5 7 -9 11 -22 9 -28z m573 10 c10 -12 10 -18 0 -29 -14
-18 -40 -10 -40 13 0 32 20 40 40 16z m-420 -55 c11 -11 20 -29 20 -40 0 -22
-33 -60 -53 -60 -27 0 -57 31 -57 60 0 18 8 34 22 44 30 21 44 20 68 -4z m288
4 c42 -29 17 -104 -35 -104 -20 0 -53 38 -53 60 0 22 33 60 53 60 7 0 23 -7
35 -16z"/>
<path d="M402 708 l3 -83 115 0 115 0 3 83 3 82 -121 0 -121 0 3 -82z"/>
</g>
</svg>
